HIERARCHY
ROOT Hips
{
	OFFSET 0.000000 0.000000 0.000000
	CHANNELS 6 Xposition Yposition Zposition Xrotation Yrotation Zrotation
	JOINT LeftUpLeg_virtual
	{
		OFFSET 0.000000 0.000000 0.000000
		CHANNELS 3 Xrotation Yrotation Zrotation
		JOINT LeftUpLeg
		{
			OFFSET 15.427100 -6.655098 0.678600
			CHANNELS 3 Xrotation Yrotation Zrotation
			JOINT LeftLeg
			{
				OFFSET 4.081073 -39.591068 13.024000
				CHANNELS 3 Xrotation Yrotation Zrotation
				JOINT LeftFoot
				{
					OFFSET -4.081074 -37.707932 -15.979700
					CHANNELS 3 Xrotation Yrotation Zrotation
					JOINT LeftToeBase
					{
						OFFSET 5.346399 -15.068900 20.645000
						CHANNELS 3 Xrotation Yrotation Zrotation
						JOINT LeftToe_End
						{
							OFFSET 2.754700 0.931300 11.300900
							CHANNELS 3 Xrotation Yrotation Zrotation
							End Site
							{
								OFFSET 0 0 0
							}
						}
					}
				}
			}
		}
	}
	JOINT RightUpLeg_virtual
	{
		OFFSET 0.000000 0.000000 0.000000
		CHANNELS 3 Xrotation Yrotation Zrotation
		JOINT RightUpLeg
		{
			OFFSET -15.569500 -6.655098 0.678600
			CHANNELS 3 Xrotation Yrotation Zrotation
			JOINT RightLeg
			{
				OFFSET -4.081825 -39.591045 13.023800
				CHANNELS 3 Xrotation Yrotation Zrotation
				JOINT RightFoot
				{
					OFFSET 4.081824 -37.707954 -15.979600
					CHANNELS 3 Xrotation Yrotation Zrotation
					JOINT RightToeBase
					{
						OFFSET -5.346400 -15.068900 20.645000
						CHANNELS 3 Xrotation Yrotation Zrotation
						JOINT RightToe_End
						{
							OFFSET -2.754700 0.931300 11.300900
							CHANNELS 3 Xrotation Yrotation Zrotation
							End Site
							{
								OFFSET 0 0 0
							}
						}
					}
				}
			}
		}
	}
	JOINT Spine_virtual
	{
		OFFSET 0.000000 0.000000 0.000000
		CHANNELS 3 Xrotation Yrotation Zrotation
		JOINT Spine
		{
			OFFSET -0.279200 12.230698 -2.892100
			CHANNELS 3 Xrotation Yrotation Zrotation
			JOINT Spine1
			{
				OFFSET -0.232667 10.192268 -1.242267
				CHANNELS 3 Xrotation Yrotation Zrotation
				JOINT Spine1_split
				{
					OFFSET -0.232667 10.192268 -1.242267
					CHANNELS 3 Xrotation Yrotation Zrotation
					JOINT Spine2
					{
						OFFSET -0.232667 10.192268 -1.242267
						CHANNELS 3 Xrotation Yrotation Zrotation
						JOINT Neck_virtual
						{
							OFFSET 0.000000 0.000000 0.000000
							CHANNELS 3 Xrotation Yrotation Zrotation
							JOINT Neck
							{
								OFFSET -0.418800 17.814194 8.416900
								CHANNELS 3 Xrotation Yrotation Zrotation
								JOINT Head
								{
									OFFSET 0.000000 7.031097 3.806800
									CHANNELS 3 Xrotation Yrotation Zrotation
									JOINT HeadTop_End
									{
										OFFSET 0.000000 24.646606 12.978600
										CHANNELS 3 Xrotation Yrotation Zrotation
										End Site
										{
											OFFSET 0 0 0
										}
									}
								}
							}
						}
						JOINT LeftShoulder_virtual
						{
							OFFSET 0.000000 0.000000 0.000000
							CHANNELS 3 Xrotation Yrotation Zrotation
							JOINT LeftShoulder
							{
								OFFSET 8.476499 7.247704 -3.868750
								CHANNELS 3 Xrotation Yrotation Zrotation
								JOINT LeftShoulder_split
								{
									OFFSET 8.476499 7.247704 -3.868750
									CHANNELS 3 Xrotation Yrotation Zrotation
									JOINT LeftArm
									{
										OFFSET 9.308998 -2.777710 0.208600
										CHANNELS 3 Xrotation Yrotation Zrotation
										JOINT LeftForeArm
										{
											OFFSET 29.972298 0.000000 0.000000
											CHANNELS 3 Xrotation Yrotation Zrotation
											JOINT LeftHand
											{
												OFFSET 26.026505 0.000000 0.000000
												CHANNELS 3 Xrotation Yrotation Zrotation
												End Site
												{
													OFFSET 0 0 0
												}
											}
										}
									}
								}
							}
						}
						JOINT RightShoulder_virtual
						{
							OFFSET 0.000000 0.000000 0.000000
							CHANNELS 3 Xrotation Yrotation Zrotation
							JOINT RightShoulder
							{
								OFFSET -7.570500 7.247704 -3.868750
								CHANNELS 3 Xrotation Yrotation Zrotation
								JOINT RightShoulder_split
								{
									OFFSET -7.570500 7.247704 -3.868750
									CHANNELS 3 Xrotation Yrotation Zrotation
									JOINT RightArm
									{
										OFFSET -9.308998 -2.777710 0.208500
										CHANNELS 3 Xrotation Yrotation Zrotation
										JOINT RightForeArm
										{
											OFFSET -29.972300 0.000000 0.000000
											CHANNELS 3 Xrotation Yrotation Zrotation
											JOINT RightHand
											{
												OFFSET -26.026505 0.000000 0.000000
												CHANNELS 3 Xrotation Yrotation Zrotation
												End Site
												{
													OFFSET 0 0 0
												}
											}
										}
									}
								}
							}
						}
					}
				}
			}
		}
	}
}
MOTION
Frames: 11
Frame Time: 0.03333333
0.525855 79.673141 -0.006279 0.000000 0.000000 0.000000 12.404535 -56.082164 11.513024 -44.706081 6.417960 28.914718 39.649105 -10.313696 -10.062827 -3.027412 -0.729994 -5.621459 0.612356 0.000000 0.000011 0.000000 0.000000 0.000000 12.404535 -56.082164 11.513024 -28.224613 -9.872041 -22.186705 48.764511 9.323561 -0.835066 -34.703563 -5.340053 12.103242 9.011171 0.000032 -0.000002 0.000000 0.000000 0.000000 12.404535 -56.082164 11.513024 11.722733 1.503850 -2.939402 -7.573169 6.733732 -2.520091 0.000000 0.000000 0.000000 0.000000 0.000000 0.000000 0.220137 5.397598 -4.595491 -12.580309 9.083971 1.899284 -4.773442 33.430757 5.660079 0.000000 0.000000 0.000000 0.220137 5.397598 -4.595491 -31.809700 13.410712 5.488764 0.000000 0.000000 0.000000 38.429527 -24.730797 -35.179183 -0.000019 -63.060876 -0.000019 0.000000 0.000000 0.000000 0.220137 5.397598 -4.595491 0.882300 7.689504 10.202001 0.000000 0.000000 0.000000 7.550367 1.963480 57.853738 0.000061 75.685169 -0.000061 0.000000 0.000000 0.000000 
0.469440 79.685783 -0.019112 0.000000 0.000000 0.000000 12.319855 -56.027123 11.405673 -44.655982 6.393653 28.995884 39.609674 -10.224848 -10.082816 -3.000684 -0.905854 -5.658937 0.612372 0.000007 -0.000004 0.000000 0.000000 0.000000 12.319855 -56.027123 11.405673 -28.085275 -9.938029 -22.110822 48.730367 9.320825 -0.835639 -34.763426 -5.391893 12.053014 9.011156 0.000020 0.000010 0.000000 0.000000 0.000000 12.319855 -56.027123 11.405673 11.722847 1.504075 -2.943759 -7.573173 6.733750 -2.520093 0.000000 0.000000 0.000000 0.000000 0.000000 0.000000 0.220139 5.397583 -4.595491 -12.608603 10.491364 2.412570 -4.224775 32.405757 4.896690 0.000000 0.000000 0.000000 0.220139 5.397583 -4.595491 -31.754079 12.465676 5.128835 0.000000 0.000000 0.000000 39.012306 -25.126446 -34.726984 0.000008 -61.838784 0.000016 0.000000 0.000000 0.000000 0.220139 5.397583 -4.595491 1.163712 7.679726 9.947279 0.000000 0.000000 0.000000 6.979113 3.931145 56.951743 0.000032 74.671733 -0.000016 0.000000 0.000000 0.000000 
0.402225 79.697189 -0.023594 0.000000 0.000000 0.000000 12.262501 -55.946711 11.311950 -44.632226 6.362840 29.078858 39.577033 -10.132734 -10.102178 -2.976930 -1.105449 -5.693688 0.612368 0.000016 -0.000006 0.000000 0.000000 0.000000 12.262501 -55.946711 11.311950 -27.937873 -10.014553 -22.025499 48.688911 9.319049 -0.835851 -34.838872 -5.465646 11.998742 9.011154 -0.000011 0.000005 0.000000 0.000000 0.000000 12.262501 -55.946711 11.311950 11.722961 1.504791 -2.947767 -7.573171 6.733736 -2.520092 0.000000 0.000000 0.000000 0.000000 0.000000 0.000000 0.220137 5.397600 -4.595490 -12.821394 12.084332 2.975460 -3.719843 31.374129 4.175468 0.000000 0.000000 0.000000 0.220137 5.397600 -4.595490 -31.730422 11.421055 4.759068 0.000000 0.000000 0.000000 39.967006 -25.538412 -34.374255 -0.000001 -60.212380 -0.000006 0.000000 0.000000 0.000000 0.220137 5.397600 -4.595490 1.475928 7.670220 9.670639 0.000000 0.000000 0.000000 6.392935 5.865454 55.957319 0.000053 73.593547 -0.000068 0.000000 0.000000 0.000000 
0.329688 79.707016 -0.027233 0.000000 0.000000 0.000000 12.199598 -55.901021 11.218066 -44.572879 6.338267 29.173920 39.558226 -10.042476 -10.122952 -2.988502 -1.280692 -5.736607 0.612367 0.000001 -0.000003 0.000000 0.000000 0.000000 12.199598 -55.901021 11.218066 -27.797939 -10.089331 -21.946585 48.652445 9.316178 -0.836755 -34.909855 -5.500682 11.953029 9.011151 -0.000046 -0.000001 0.000000 0.000000 0.000000 12.199598 -55.901021 11.218066 11.723028 1.505453 -2.950591 -7.573169 6.733736 -2.520092 0.000000 0.000000 0.000000 0.000000 0.000000 0.000000 0.220137 5.397597 -4.595493 -13.172017 13.808984 3.564262 -3.175432 30.361820 3.469797 0.000000 0.000000 0.000000 0.220137 5.397597 -4.595493 -31.736494 10.309243 4.391985 0.000000 0.000000 0.000000 41.206668 -26.015156 -34.093712 -0.000021 -58.194031 -0.000021 0.000000 0.000000 0.000000 0.220137 5.397597 -4.595493 1.816775 7.661907 9.370137 0.000000 0.000000 0.000000 5.862042 7.760580 54.903366 0.000065 72.405381 -0.000063 0.000000 0.000000 0.000000 
0.233251 79.692780 -0.009811 0.000000 0.000000 0.000000 12.076235 -55.819967 11.076819 -44.509846 6.314626 29.264318 39.589662 -9.954867 -10.142579 -3.032997 -1.503733 -5.769004 0.612362 -0.000017 0.000003 0.000000 0.000000 0.000000 12.076235 -55.819967 11.076819 -27.592964 -10.174185 -21.885536 48.646287 9.315961 -0.836767 -35.044731 -5.569486 11.907090 9.011162 -0.000018 0.000001 0.000000 0.000000 0.000000 12.076235 -55.819967 11.076819 11.723064 1.508459 -2.951182 -7.573174 6.733743 -2.520093 0.000000 0.000000 0.000000 0.000000 0.000000 0.000000 0.220137 5.397592 -4.595490 -13.611894 15.600398 4.167295 -2.564155 29.340119 2.779436 0.000000 0.000000 0.000000 0.220137 5.397592 -4.595490 -31.768429 9.163176 4.038141 0.000000 0.000000 0.000000 42.599975 -26.639870 -33.886242 0.000002 -55.860378 -0.000000 0.000000 0.000000 0.000000 0.220137 5.397592 -4.595490 2.178118 7.655624 9.046890 0.000000 0.000000 0.000000 5.487200 9.610652 53.855464 0.000003 71.052545 0.000017 0.000000 0.000000 0.000000 
0.118351 79.623001 0.014153 0.000000 0.000000 0.000000 11.970347 -55.744821 10.949784 -44.487822 6.257494 29.386885 39.732378 -9.866498 -10.164962 -3.142519 -1.739825 -5.819824 0.612364 0.000002 -0.000001 0.000000 0.000000 0.000000 11.970347 -55.744821 10.949784 -27.417703 -10.240811 -21.846778 48.732993 9.326406 -0.831579 -35.248308 -5.634375 11.867926 9.011154 0.000018 0.000001 0.000000 0.000000 0.000000 11.970347 -55.744821 10.949784 11.723063 1.513053 -2.950220 -7.573171 6.733741 -2.520090 0.000000 0.000000 0.000000 0.000000 0.000000 0.000000 0.220135 5.397600 -4.595490 -14.103588 17.400474 4.762781 -1.864424 28.302318 2.101893 0.000000 0.000000 0.000000 0.220135 5.397600 -4.595490 -31.820618 8.016333 3.705914 0.000000 0.000000 0.000000 44.066168 -27.360732 -33.695652 0.000014 -53.378796 0.000010 0.000000 0.000000 0.000000 0.220135 5.397600 -4.595490 2.548993 7.651776 8.703964 0.000000 0.000000 0.000000 5.354233 11.411957 52.878177 0.000032 69.497154 -0.000036 0.000000 0.000000 0.000000 
-0.016470 79.539711 0.060387 0.000000 0.000000 0.000000 11.859916 -55.652938 10.795127 -44.478110 6.175606 29.540636 39.928552 -9.779633 -10.190600 -3.296194 -2.004995 -5.873275 0.612366 0.000028 -0.000006 0.000000 0.000000 0.000000 11.859916 -55.652938 10.795127 -27.202722 -10.325778 -21.790120 48.819303 9.338247 -0.826319 -35.485725 -5.717114 11.828902 9.011156 0.000003 -0.000000 0.000000 0.000000 0.000000 11.859916 -55.652938 10.795127 11.722994 1.519495 -2.946256 -7.573175 6.733736 -2.520090 0.000000 0.000000 0.000000 0.000000 0.000000 0.000000 0.220136 5.397587 -4.595490 -14.592108 19.175321 5.303608 -1.090994 27.292606 1.457443 0.000000 0.000000 0.000000 0.220136 5.397587 -4.595490 -31.885977 6.902786 3.401606 0.000000 0.000000 0.000000 45.490067 -28.161964 -33.525553 -0.000016 -50.897265 -0.000038 0.000000 0.000000 0.000000 0.220136 5.397587 -4.595490 2.920299 7.650386 8.343459 0.000000 0.000000 0.000000 5.491362 13.167194 52.001997 0.000027 67.735881 -0.000029 0.000000 0.000000 0.000000 
-0.178126 79.403946 0.121120 0.000000 0.000000 0.000000 11.754519 -55.516771 10.629874 -44.533633 6.043505 29.733719 40.237529 -9.697538 -10.223010 -3.504553 -2.324850 -5.941026 0.612366 0.000048 -0.000003 0.000000 0.000000 0.000000 11.754519 -55.516771 10.629874 -26.968703 -10.405524 -21.727165 48.981769 9.358233 -0.817435 -35.814722 -5.854496 11.775795 9.011167 0.000025 0.000007 0.000000 0.000000 0.000000 11.754519 -55.516771 10.629874 11.722857 1.528625 -2.939972 -7.573169 6.733741 -2.520092 0.000000 0.000000 0.000000 0.000000 0.000000 0.000000 0.220137 5.397589 -4.595490 -15.007963 20.884704 5.771497 -0.287508 26.338664 0.849969 0.000000 0.000000 0.000000 0.220137 5.397589 -4.595490 -31.956177 5.857055 3.129550 0.000000 0.000000 0.000000 46.746255 -28.950549 -33.353409 0.000000 -48.637234 -0.000001 0.000000 0.000000 0.000000 0.220137 5.397589 -4.595490 3.283997 7.651116 7.966442 0.000000 0.000000 0.000000 5.920871 14.880291 51.269954 0.000048 65.751144 -0.000052 0.000000 0.000000 0.000000 
-0.383445 79.306000 0.243553 0.000000 0.000000 0.000000 11.692977 -55.377258 10.444194 -44.559977 5.900411 29.966246 40.567103 -9.591590 -10.233997 -3.792815 -2.681385 -6.029876 0.612369 -0.000003 -0.000002 0.000000 0.000000 0.000000 11.692977 -55.377258 10.444194 -26.614087 -10.507542 -21.585037 49.006973 9.378810 -0.809759 -36.134450 -6.044138 11.733521 9.011152 0.000016 0.000003 0.000000 0.000000 0.000000 11.692977 -55.377258 10.444194 11.722544 1.539913 -2.925861 -7.573171 6.733738 -2.520092 0.000000 0.000000 0.000000 0.000000 0.000000 0.000000 0.220134 5.397601 -4.595491 -15.334225 22.422990 6.243770 0.502948 25.348160 0.264313 0.000000 0.000000 0.000000 0.220134 5.397601 -4.595491 -32.021925 4.914050 2.892493 0.000000 0.000000 0.000000 47.811498 -29.493870 -33.186530 -0.000034 -46.959200 -0.000037 0.000000 0.000000 0.000000 0.220134 5.397601 -4.595491 3.631451 7.653601 7.573648 0.000000 0.000000 0.000000 6.596168 16.638923 50.765477 -0.000007 63.242839 0.000009 0.000000 0.000000 0.000000 
-0.589811 79.145851 0.360443 0.000000 0.000000 0.000000 11.804041 -55.098781 10.259325 -44.885090 5.591738 30.307100 41.038512 -9.490374 -10.235610 -4.057605 -3.159358 -6.122105 0.612372 -0.000005 0.000001 0.000000 0.000000 0.000000 11.804041 -55.098781 10.259325 -26.298382 -10.641257 -21.261540 49.085387 9.406945 -0.806938 -36.533415 -6.404533 11.620734 9.011157 -0.000011 0.000003 0.000000 0.000000 0.000000 11.804041 -55.098781 10.259325 11.722358 1.552143 -2.916461 -7.573171 6.733741 -2.520092 0.000000 0.000000 0.000000 0.000000 0.000000 0.000000 0.220137 5.397595 -4.595489 -15.607409 23.632171 6.809825 1.209108 24.068069 -0.171953 0.000000 0.000000 0.000000 0.220137 5.397595 -4.595489 -32.073417 4.108880 2.692006 0.000000 0.000000 0.000000 48.539819 -29.578995 -32.850642 -0.000007 -46.556837 -0.000009 0.000000 0.000000 0.000000 0.220137 5.397595 -4.595489 3.953793 7.657834 7.166238 0.000000 0.000000 0.000000 6.871914 18.871845 50.511298 -0.000004 59.317488 0.000011 0.000000 0.000000 0.000000 
-0.804902 78.928925 0.517704 0.000000 0.000000 0.000000 12.422707 -54.414276 10.302294 -45.843082 5.049212 30.638176 41.625676 -9.367134 -10.225486 -4.198128 -3.906850 -6.140135 0.612361 0.000004 -0.000001 0.000000 0.000000 0.000000 12.422707 -54.414276 10.302294 -26.088350 -10.828918 -20.695627 49.152609 9.450993 -0.807977 -37.072108 -7.206246 11.386624 9.011158 0.000010 0.000002 0.000000 0.000000 0.000000 12.422707 -54.414276 10.302294 11.722348 1.567556 -2.913401 -7.573171 6.733743 -2.520089 0.000000 0.000000 0.000000 0.000000 0.000000 0.000000 0.220140 5.397589 -4.595493 -15.798767 24.385152 7.424610 1.755382 22.150143 -0.171145 0.000000 0.000000 0.000000 0.220140 5.397589 -4.595493 -32.100472 3.476778 2.529091 0.000000 0.000000 0.000000 48.817913 -29.087249 -32.267555 -0.000008 -48.040019 -0.000002 0.000000 0.000000 0.000000 0.220140 5.397589 -4.595493 4.243487 7.661978 6.746764 0.000000 0.000000 0.000000 7.342832 21.249453 50.827351 -0.000001 54.532613 -0.000006 0.000000 0.000000 0.000000 
